<svg xmlns="http://www.w3.org/2000/svg" xmlns:xlink="http://www.w3.org/1999/xlink" width="576" height="32" viewBox="0 0 576 32">
  <svg width="32" height="32" viewBox="0 0 32 32">
    <path fill="#fff" d="M0 0h32v32H0V0z"/>
    <path fill="#eaebec" d="M4.63 15.08c2.257-3.965 6.51-6.637 11.387-6.637s9.13 2.67 11.386 6.635c-2.257 3.964-6.51 6.636-11.387 6.636s-9.13-2.67-11.386-6.635zm16.97-.002c0-3.095-2.5-5.604-5.584-5.604s-5.585 2.51-5.585 5.604 2.502 5.604 5.586 5.604c3.084 0 5.585-2.51 5.585-5.604z"/>
    <path fill="#656566" d="M18.58 15.078c0 1.42-1.148 2.572-2.564 2.572s-2.563-1.15-2.563-2.572 1.147-2.572 2.563-2.572c1.415 0 2.563 1.15 2.563 2.572z"/>
  </svg>
  <svg width="32" height="32" viewBox="0 0 32 32" x="32">
    <path fill="#fff" d="M0 0h32v32H0V0z"/>
    <path fill="#4797d2" d="M15.988 15.067l-4.57-3.444c1.9-2.522 5.487-3.025 8.01-1.123 1.515 1.14 2.312 2.773 2.28 4.67l-5.72-.103z"/>
    <path fill="#fefefe" d="M15.997 15.087L10.53 16.76c-.924-3.02.776-6.214 3.796-7.137 1.812-.554 3.6-.24 5.113.9l-3.443 4.565z"/>
    <path fill="#eaebec" d="M4.63 15.08c2.257-3.965 6.51-6.637 11.387-6.637s9.13 2.67 11.386 6.635c-2.257 3.964-6.51 6.636-11.387 6.636s-9.13-2.67-11.386-6.635zm16.97-.002c0-3.095-2.5-5.604-5.584-5.604s-5.585 2.51-5.585 5.604 2.502 5.604 5.586 5.604c3.084 0 5.585-2.51 5.585-5.604z"/>
    <path fill="#656566" d="M18.58 15.078c0 1.42-1.148 2.572-2.564 2.572s-2.563-1.15-2.563-2.572 1.147-2.572 2.563-2.572c1.415 0 2.563 1.15 2.563 2.572z"/>
    <path fill="none" stroke="#fff" stroke-width="2.689" d="M20.34 15.098c0 2.37-1.92 4.29-4.29 4.29s-4.288-1.92-4.288-4.29 1.92-4.29 4.29-4.29 4.288 1.92 4.288 4.29z"/>
  </svg>
  <svg width="32" height="32" viewBox="0 0 32 32" x="64">
    <path fill="#fff" d="M0 0h32v32H0V0z"/>
    <path fill="#4797d2" d="M16.02 15.092V9.37c3.157 0 5.717 2.562 5.717 5.722 0 1.896-.824 3.515-2.357 4.63l-3.36-4.63z"/>
    <path fill="#fefefe" d="M15.996 15.07l-5.648.894c-.494-3.117 1.635-6.044 4.754-6.538 1.872-.296 3.598.264 4.938 1.603l-4.044 4.04z"/>
    <path fill="#eaebec" d="M4.63 15.08c2.257-3.965 6.51-6.637 11.387-6.637s9.13 2.67 11.386 6.635c-2.257 3.964-6.51 6.636-11.387 6.636s-9.13-2.67-11.386-6.635zm16.97-.002c0-3.095-2.5-5.604-5.584-5.604s-5.585 2.51-5.585 5.604 2.502 5.604 5.586 5.604c3.084 0 5.585-2.51 5.585-5.604z"/>
    <path fill="#656566" d="M18.58 15.078c0 1.42-1.148 2.572-2.564 2.572s-2.563-1.15-2.563-2.572 1.147-2.572 2.563-2.572c1.415 0 2.563 1.15 2.563 2.572z"/>
    <path fill="none" stroke="#fff" stroke-width="2.315" d="M20.528 15.098c0 2.472-2.004 4.477-4.477 4.477s-4.476-2.004-4.476-4.477c0-2.472 2.004-4.477 4.477-4.477s4.478 2.005 4.478 4.478z"/>
  </svg>
  <svg width="32" height="32" viewBox="0 0 32 32" x="96">
    <path fill="#fff" d="M0 0h32v32H0V0z"/>
    <path fill="#4797d2" d="M16.017 15.16l3.975-4.115c2.272 2.194 2.334 5.815.14 8.09-1.318 1.363-3.035 1.955-4.912 1.69l.798-5.664z"/>
    <path fill="#fefefe" d="M16.015 15.09l-5.648.896c-.494-3.117 1.635-6.044 4.754-6.54 1.873-.295 3.6.265 4.94 1.604l-4.045 4.04z"/>
    <path fill="#eaebec" d="M4.596 15.08c2.257-3.965 6.51-6.637 11.387-6.637s9.13 2.67 11.386 6.635c-2.258 3.964-6.512 6.636-11.388 6.636s-9.13-2.67-11.386-6.635zm16.97-.002c0-3.095-2.5-5.604-5.584-5.604s-5.585 2.51-5.585 5.604 2.5 5.604 5.585 5.604c3.084 0 5.585-2.51 5.585-5.604z"/>
    <path fill="#656566" d="M18.545 15.078c0 1.42-1.147 2.572-2.563 2.572s-2.563-1.15-2.563-2.572 1.146-2.572 2.562-2.572c1.415 0 2.563 1.15 2.563 2.572z"/>
    <path fill="none" stroke="#fff" stroke-width="1.94" d="M20.715 15.098c0 2.576-2.088 4.664-4.664 4.664s-4.663-2.088-4.663-4.664c0-2.576 2.088-4.664 4.664-4.664s4.665 2.088 4.665 4.664z"/>
  </svg>
  <svg width="32" height="32" viewBox="0 0 32 32" x="128">
    <path fill="#fff" d="M0 0h32v32H0V0z"/>
    <path fill="#4797d2" d="M16.012 15.173l3.975-4.116c2.272 2.194 2.334 5.815.14 8.09-1.318 1.363-3.035 1.955-4.912 1.69l.798-5.664z"/>
    <path fill="#eaebec" d="M4.63 15.08c2.257-3.965 6.51-6.637 11.387-6.637s9.13 2.67 11.386 6.635c-2.257 3.964-6.51 6.636-11.387 6.636s-9.13-2.67-11.386-6.635zm16.97-.002c0-3.095-2.5-5.604-5.584-5.604s-5.585 2.51-5.585 5.604 2.502 5.604 5.586 5.604c3.084 0 5.585-2.51 5.585-5.604z"/>
    <path fill="#656566" d="M18.58 15.078c0 1.42-1.148 2.572-2.564 2.572s-2.563-1.15-2.563-2.572 1.147-2.572 2.563-2.572c1.415 0 2.563 1.15 2.563 2.572z"/>
    <path fill="none" stroke="#fff" stroke-width="1.634" d="M20.868 15.098c0 2.66-2.157 4.817-4.817 4.817s-4.816-2.157-4.816-4.817 2.157-4.817 4.817-4.817S20.87 12.44 20.87 15.1z"/>
  </svg>
  <svg width="32" height="32" viewBox="0 0 32 32" x="160">
    <path fill="#fff" d="M0 0h32v32H0V0z"/>
    <path fill="#4797d2" d="M16.01 15.143l3.975-4.116c2.272 2.194 2.334 5.815.14 8.09-1.318 1.363-3.035 1.955-4.912 1.69l.798-5.664z"/>
    <path fill="#bed136" d="M16.038 15.147l-.798 5.665c-3.128-.44-5.307-3.33-4.866-6.46.088-.625.247-1.143.524-1.71l5.14 2.505z"/>
    <path fill="#fefefe" d="M16.008 15.074l-5.648.895c-.494-3.118 1.635-6.045 4.754-6.54 1.872-.296 3.598.264 4.938 1.603l-4.044 4.04z"/>
    <path fill="#eaebec" d="M4.63 15.08c2.257-3.965 6.51-6.637 11.387-6.637s9.13 2.67 11.386 6.635c-2.257 3.964-6.51 6.636-11.387 6.636s-9.13-2.67-11.386-6.635zm16.97-.002c0-3.095-2.5-5.604-5.584-5.604s-5.585 2.51-5.585 5.604 2.502 5.604 5.586 5.604c3.084 0 5.585-2.51 5.585-5.604z"/>
    <path fill="#656566" d="M18.58 15.078c0 1.42-1.148 2.572-2.564 2.572s-2.563-1.15-2.563-2.572 1.147-2.572 2.563-2.572c1.415 0 2.563 1.15 2.563 2.572z"/>
    <path fill="none" stroke="#fff" stroke-width="1.294" d="M21.038 15.098c0 2.754-2.233 4.987-4.987 4.987s-4.986-2.233-4.986-4.987 2.233-4.987 4.987-4.987 4.988 2.234 4.988 4.988z"/>
  </svg>
  <svg width="32" height="32" viewBox="0 0 32 32" x="192">
    <path fill="#fff" d="M0 0h32v32H0V0z"/>
    <path fill="#4797d2" d="M16.032 15.124l3.975-4.116c2.272 2.194 2.334 5.815.14 8.09-1.318 1.363-3.035 1.955-4.912 1.69l.798-5.664z"/>
    <path fill="#fefefe" d="M16.03 15.055l-5.648.895c-.494-3.117 1.635-6.044 4.754-6.54 1.872-.295 3.598.265 4.938 1.604l-4.044 4.04z"/>
    <path fill="#bed136" d="M16.06 15.128l-.798 5.665c-3.128-.44-5.307-3.33-4.866-6.46.088-.625.247-1.143.524-1.71l5.14 2.505z"/>
    <path fill="#eaebec" d="M4.63 15.08c2.257-3.965 6.51-6.637 11.387-6.637s9.13 2.67 11.386 6.635c-2.257 3.964-6.51 6.636-11.387 6.636s-9.13-2.67-11.386-6.635zm16.97-.002c0-3.095-2.5-5.604-5.584-5.604s-5.585 2.51-5.585 5.604 2.502 5.604 5.586 5.604c3.084 0 5.585-2.51 5.585-5.604z"/>
    <path fill="#656566" d="M18.58 15.078c0 1.42-1.148 2.572-2.564 2.572s-2.563-1.15-2.563-2.572 1.147-2.572 2.563-2.572c1.415 0 2.563 1.15 2.563 2.572z"/>
    <path fill="none" stroke="#fff" stroke-width="1.021" d="M21.174 15.098c0 2.83-2.294 5.123-5.123 5.123S10.93 17.928 10.93 15.1c0-2.83 2.294-5.123 5.123-5.123s5.124 2.294 5.124 5.123z"/>
  </svg>
  <svg width="32" height="32" viewBox="0 0 32 32" x="224">
    <path fill="#fff" d="M0 0h32v32H0V0z"/>
    <path fill="#4797d2" d="M16.022 15.15l3.975-4.117c2.272 2.194 2.334 5.815.14 8.09-1.318 1.363-3.035 1.955-4.912 1.69l.798-5.664z"/>
    <path fill="#fefefe" d="M16.02 15.08l-5.648.894c-.494-3.117 1.635-6.044 4.754-6.54 1.872-.295 3.598.265 4.938 1.604l-4.044 4.04z"/>
    <path fill="#828282" d="M16.04 15.11l-5.676-.697c.154-1.255.633-2.28 1.495-3.205l4.18 3.9z"/>
    <path fill="#bed136" d="M16.05 15.152l-.798 5.665c-3.128-.44-5.307-3.33-4.866-6.46.088-.625.247-1.143.524-1.71l5.14 2.505z"/>
    <path fill="#eaebec" d="M4.63 15.08c2.257-3.965 6.51-6.637 11.387-6.637s9.13 2.67 11.386 6.635c-2.257 3.964-6.51 6.636-11.387 6.636s-9.13-2.67-11.386-6.635zm16.97-.002c0-3.095-2.5-5.604-5.584-5.604s-5.585 2.51-5.585 5.604 2.502 5.604 5.586 5.604c3.084 0 5.585-2.51 5.585-5.604z"/>
    <path fill="#656566" d="M18.58 15.078c0 1.42-1.148 2.572-2.564 2.572s-2.563-1.15-2.563-2.572 1.147-2.572 2.563-2.572c1.415 0 2.563 1.15 2.563 2.572z"/>
    <path fill="none" stroke="#fff" stroke-width=".851" d="M21.26 15.098c0 2.877-2.332 5.208-5.21 5.208s-5.208-2.332-5.208-5.21c0-2.876 2.332-5.208 5.21-5.208s5.208 2.332 5.208 5.21z"/>
  </svg>
  <svg width="32" height="32" viewBox="0 0 32 32" x="256">
    <path fill="#fff" d="M0 0h32v32H0V0z"/>
    <path fill="#4797d2" d="M16.037 15.112l3.975-4.116c2.272 2.194 2.334 5.815.14 8.09-1.318 1.363-3.035 1.955-4.912 1.69l.798-5.664z"/>
    <path fill="#fefefe" d="M16.035 15.043l-5.648.895C9.893 12.82 12.022 9.894 15.14 9.4c1.873-.296 3.6.264 4.94 1.603l-4.045 4.04z"/>
    <path fill="#828282" d="M16.05 15.092l-5.185-2.416c.534-1.146 1.307-1.973 2.412-2.587l2.772 5z"/>
    <path fill="#bed136" d="M16.065 15.116l-.798 5.665c-3.128-.438-5.307-3.33-4.866-6.458.09-.626.248-1.144.525-1.712l5.14 2.506z"/>
    <path fill="#eaebec" d="M4.63 15.08c2.257-3.965 6.51-6.637 11.387-6.637s9.13 2.67 11.386 6.635c-2.257 3.964-6.51 6.636-11.387 6.636s-9.13-2.67-11.386-6.635zm16.97-.002c0-3.095-2.5-5.604-5.584-5.604s-5.585 2.51-5.585 5.604 2.502 5.604 5.586 5.604c3.084 0 5.585-2.51 5.585-5.604z"/>
    <path fill="#656566" d="M18.58 15.078c0 1.42-1.148 2.572-2.564 2.572s-2.563-1.15-2.563-2.572 1.147-2.572 2.563-2.572c1.415 0 2.563 1.15 2.563 2.572z"/>
    <path fill="none" stroke="#fff" stroke-width=".681" d="M21.345 15.098c0 2.924-2.37 5.294-5.294 5.294s-5.293-2.37-5.293-5.294c0-2.924 2.37-5.294 5.294-5.294s5.295 2.37 5.295 5.294z"/>
  </svg>
  <svg width="32" height="32" viewBox="0 0 32 32" x="288">
    <path fill="#fff" d="M0 0h32v32H0V0z"/>
    <path fill="#4797d2" d="M16.02 15.12l3.975-4.117c2.272 2.194 2.334 5.815.14 8.09-1.318 1.363-3.035 1.955-4.912 1.69l.798-5.664z"/>
    <path fill="#fefefe" d="M16.018 15.05l-5.648.895c-.494-3.117 1.635-6.044 4.754-6.538 1.872-.296 3.598.264 4.938 1.603l-4.044 4.04z"/>
    <path fill="#f9ae1f" d="M15.918 15.03l-3.117 4.8c-2.648-1.72-3.4-5.264-1.678-7.915 1.033-1.59 2.606-2.5 4.498-2.6l.298 5.714z"/>
    <path fill="#828282" d="M16.032 15.1l-5.184-2.417c.534-1.146 1.307-1.973 2.412-2.587l2.772 5.002z"/>
    <path fill="#bed136" d="M16.048 15.123l-.798 5.665c-3.128-.44-5.307-3.33-4.866-6.46.088-.625.247-1.143.524-1.71l5.14 2.505z"/>
    <path fill="#eaebec" d="M4.63 15.08c2.257-3.965 6.51-6.637 11.387-6.637s9.13 2.67 11.386 6.635c-2.257 3.964-6.51 6.636-11.387 6.636s-9.13-2.67-11.386-6.635zm16.97-.002c0-3.095-2.5-5.604-5.584-5.604s-5.585 2.51-5.585 5.604 2.502 5.604 5.586 5.604c3.084 0 5.585-2.51 5.585-5.604z"/>
    <path fill="#656566" d="M18.58 15.078c0 1.42-1.148 2.572-2.564 2.572s-2.563-1.15-2.563-2.572 1.147-2.572 2.563-2.572c1.415 0 2.563 1.15 2.563 2.572z"/>
    <path fill="none" stroke="#fff" stroke-width=".408" d="M21.48 15.098c0 3-2.43 5.43-5.43 5.43s-5.43-2.43-5.43-5.43c0-3 2.432-5.43 5.43-5.43s5.43 2.43 5.43 5.43z"/>
  </svg>
  <svg width="32" height="32" viewBox="0 0 32 32" x="320">
    <path fill="#fff" d="M0 0h32v32H0V0z"/>
    <path fill="#4797d2" d="M16.04 15.14l3.974-4.115c2.272 2.194 2.334 5.815.14 8.09-1.318 1.363-3.035 1.955-4.912 1.69l.798-5.664z"/>
    <path fill="#fefefe" d="M16.037 15.072l-5.648.895c-.495-3.117 1.634-6.044 4.753-6.54 1.872-.295 3.598.265 4.938 1.604l-4.043 4.042z"/>
    <path fill="#f9ae1f" d="M15.958 15.033l-4.8 3.117c-1.72-2.65-.965-6.19 1.686-7.912 1.59-1.033 3.397-1.223 5.166-.544l-2.052 5.34z"/>
    <path fill="#828282" d="M16.05 15.12l-5.183-2.415c.534-1.146 1.307-1.973 2.412-2.587l2.77 5.002z"/>
    <path fill="#bed136" d="M16.067 15.145l-.798 5.665c-3.13-.44-5.308-3.33-4.867-6.46.088-.625.247-1.143.524-1.71l5.14 2.505z"/>
    <path fill="#eaebec" d="M4.63 15.08c2.257-3.965 6.51-6.637 11.387-6.637s9.13 2.67 11.386 6.635c-2.257 3.964-6.51 6.636-11.387 6.636s-9.13-2.67-11.386-6.635zm16.97-.002c0-3.095-2.5-5.604-5.584-5.604s-5.585 2.51-5.585 5.604 2.502 5.604 5.586 5.604c3.084 0 5.585-2.51 5.585-5.604z"/>
    <path fill="#656566" d="M18.58 15.078c0 1.42-1.148 2.572-2.564 2.572s-2.563-1.15-2.563-2.572 1.147-2.572 2.563-2.572c1.415 0 2.563 1.15 2.563 2.572z"/>
  </svg>
  <svg width="32" height="32" viewBox="0 0 32 32" x="352">
    <path fill="#fff" d="M0 0h32v32H0V0z"/>
    <path fill="#fefefe" d="M16.018 15.004l-5.696-.498c.275-3.144 3.048-5.47 6.194-5.194 1.888.165 3.427 1.127 4.403 2.75l-4.902 2.943z"/>
    <path fill="#4797d2" d="M16.016 15.06l3.975-4.115c2.273 2.194 2.335 5.815.14 8.09-1.317 1.363-3.034 1.955-4.91 1.69l.797-5.664z"/>
    <path fill="#fefefe" d="M16.014 14.992l-5.648.895C9.872 12.77 12 9.843 15.12 9.347c1.872-.295 3.598.265 4.938 1.604l-4.044 4.042z"/>
    <path fill="#f9ae1f" d="M16.035 14.92l-5.66.846c-.466-3.123 1.69-6.034 4.815-6.5 1.875-.28 3.598.295 4.927 1.646 0 0-.054.073-.162.18l-1.734 1.705c-.635.625-2.185 2.123-2.185 2.123z"/>
    <path fill="#828282" d="M16.028 15.04l-5.184-2.415c.534-1.146 1.307-1.973 2.412-2.587l2.772 5.002z"/>
    <path fill="#bed136" d="M16.044 15.065l-.798 5.665c-3.128-.44-5.307-3.33-4.866-6.46.088-.625.247-1.143.524-1.71l5.14 2.505z"/>
    <path fill="#eaebec" d="M4.63 15.08c2.257-3.965 6.51-6.637 11.387-6.637s9.13 2.67 11.386 6.635c-2.257 3.964-6.51 6.636-11.387 6.636s-9.13-2.67-11.386-6.635zm16.97-.002c0-3.095-2.5-5.604-5.584-5.604s-5.585 2.51-5.585 5.604 2.502 5.604 5.586 5.604c3.084 0 5.585-2.51 5.585-5.604z"/>
    <path fill="#656566" d="M18.58 15.078c0 1.42-1.148 2.572-2.564 2.572s-2.563-1.15-2.563-2.572 1.147-2.572 2.563-2.572c1.415 0 2.563 1.15 2.563 2.572z"/>
  </svg>
  <svg width="32" height="32" viewBox="0 0 32 32" x="384">
    <path fill="#fff" d="M0 0h32v32H0V0z"/>
    <path fill="#fefefe" d="M16.018 15.004l-5.696-.498c.275-3.144 3.048-5.47 6.194-5.194 1.888.165 3.427 1.127 4.403 2.75l-4.902 2.943z"/>
    <path fill="#4797d2" d="M16.016 15.06l3.975-4.115c2.273 2.194 2.335 5.815.14 8.09-1.317 1.363-3.034 1.955-4.91 1.69l.797-5.664z"/>
    <path fill="#fefefe" d="M16.014 14.992l-5.648.895C9.872 12.77 12 9.843 15.12 9.347c1.872-.295 3.598.265 4.938 1.604l-4.044 4.042z"/>
    <path fill="#f9ae1f" d="M16.035 14.92l-5.66.846c-.466-3.123 1.69-6.034 4.815-6.5 1.875-.28 3.598.295 4.927 1.646 0 0-.054.073-.162.18l-1.734 1.705c-.635.625-2.185 2.123-2.185 2.123z"/>
    <path fill="#828282" d="M16.028 15.04l-5.184-2.415c.534-1.146 1.307-1.973 2.412-2.587l2.772 5.002z"/>
    <path fill="#bed136" d="M16.044 15.065l-.798 5.665c-3.128-.44-5.307-3.33-4.866-6.46.088-.625.247-1.143.524-1.71l5.14 2.505z"/>
    <path fill="#656566" d="M18.58 15.078c0 1.42-1.148 2.572-2.564 2.572s-2.563-1.15-2.563-2.572 1.147-2.572 2.563-2.572c1.415 0 2.563 1.15 2.563 2.572z"/>
    <path fill="#eaebec" d="M10.535 13.996c-.068.35-.104.712-.104 1.082 0 3.095 2.502 5.604 5.586 5.604s5.585-2.51 5.585-5.604c0-.38-.037-.753-.11-1.113-1.082.11-2.802.165-5.49.173-2.64.008-4.36-.038-5.465-.142zM4.63 15.08c2.257-3.965 6.51-6.637 11.387-6.637s9.13 2.67 11.386 6.635c-2.257 3.964-6.51 6.636-11.387 6.636s-9.13-2.67-11.386-6.635z"/>
  </svg>
  <svg width="32" height="32" viewBox="0 0 32 32" x="416">
    <path fill="#fff" d="M0 0h32v32H0V0z"/>
    <path fill="#fefefe" d="M16.018 15.004l-5.696-.498c.275-3.144 3.048-5.47 6.194-5.194 1.888.165 3.427 1.127 4.403 2.75l-4.902 2.943z"/>
    <path fill="#4797d2" d="M16.016 15.06l3.975-4.115c2.273 2.194 2.335 5.815.14 8.09-1.317 1.363-3.034 1.955-4.91 1.69l.797-5.664z"/>
    <path fill="#fefefe" d="M16.014 14.992l-5.648.895C9.872 12.77 12 9.843 15.12 9.347c1.872-.295 3.598.265 4.938 1.604l-4.044 4.042z"/>
    <path fill="#f9ae1f" d="M16.035 14.92l-5.66.846c-.466-3.123 1.69-6.034 4.815-6.5 1.875-.28 3.598.295 4.927 1.646 0 0-.054.073-.162.18l-1.734 1.705c-.635.625-2.185 2.123-2.185 2.123z"/>
    <path fill="#828282" d="M16.028 15.04l-5.184-2.415c.534-1.146 1.307-1.973 2.412-2.587l2.772 5.002z"/>
    <path fill="#bed136" d="M16.044 15.065l-.798 5.665c-3.128-.44-5.307-3.33-4.866-6.46.088-.625.247-1.143.524-1.71l5.14 2.505z"/>
    <path fill="#eaebec" d="M21.188 17.197c-1.27 1.053-3.162 1.72-5.273 1.72-1.95 0-3.71-.568-4.968-1.483.887 1.918 2.823 3.25 5.07 3.25 2.336 0 4.338-1.442 5.17-3.487zM4.63 15.08c2.257-3.965 6.51-6.637 11.387-6.637s9.13 2.67 11.386 6.635c-2.257 3.964-6.51 6.636-11.387 6.636s-9.13-2.67-11.386-6.635z"/>
  </svg>
  <svg width="32" height="32" viewBox="0 0 32 32" x="448">
    <path fill="#fff" d="M0 0h32v32H0V0z"/>
    <path fill="#eaebec" d="M4.63 15.08c2.257 3.963 6.51 6.634 11.386 6.634s9.13-2.672 11.387-6.636c-2.257-3.964-6.51-6.635-11.386-6.635S6.887 11.115 4.63 15.08z"/>
  </svg>
  <svg width="32" height="32" viewBox="0 0 32 32" x="480">
    <path fill="#fff" d="M0 0h32v32H0V0z"/>
    <path fill="#fefefe" d="M16.018 15.004l-5.696-.498c.275-3.144 3.048-5.47 6.194-5.194 1.888.165 3.427 1.127 4.403 2.75l-4.902 2.943z"/>
    <path fill="#4797d2" d="M16.016 15.06l3.975-4.115c2.273 2.194 2.335 5.815.14 8.09-1.317 1.363-3.034 1.955-4.91 1.69l.797-5.664z"/>
    <path fill="#fefefe" d="M16.014 14.992l-5.648.895C9.872 12.77 12 9.843 15.12 9.347c1.872-.295 3.598.265 4.938 1.604l-4.044 4.042z"/>
    <path fill="#f9ae1f" d="M16.035 14.92l-5.66.846c-.466-3.123 1.69-6.034 4.815-6.5 1.875-.28 3.598.295 4.927 1.646 0 0-.054.073-.162.18l-1.734 1.705c-.635.625-2.185 2.123-2.185 2.123z"/>
    <path fill="#828282" d="M16.028 15.04l-5.184-2.415c.534-1.146 1.307-1.973 2.412-2.587l2.772 5.002z"/>
    <path fill="#bed136" d="M16.044 15.065l-.798 5.665c-3.128-.44-5.307-3.33-4.866-6.46.088-.625.247-1.143.524-1.71l5.14 2.505z"/>
    <path fill="#eaebec" d="M21.188 17.197c-1.27 1.053-3.162 1.72-5.273 1.72-1.95 0-3.71-.568-4.968-1.483.887 1.918 2.823 3.25 5.07 3.25 2.336 0 4.338-1.442 5.17-3.487zM4.63 15.08c2.257-3.965 6.51-6.637 11.387-6.637s9.13 2.67 11.386 6.635c-2.257 3.964-6.51 6.636-11.387 6.636s-9.13-2.67-11.386-6.635z"/>
  </svg>
  <svg width="32" height="32" viewBox="0 0 32 32" x="512">
    <path fill="#fff" d="M0 0h32v32H0V0z"/>
    <path fill="#fefefe" d="M16.018 15.004l-5.696-.498c.275-3.144 3.048-5.47 6.194-5.194 1.888.165 3.427 1.127 4.403 2.75l-4.902 2.943z"/>
    <path fill="#4797d2" d="M16.016 15.06l3.975-4.115c2.273 2.194 2.335 5.815.14 8.09-1.317 1.363-3.034 1.955-4.91 1.69l.797-5.664z"/>
    <path fill="#fefefe" d="M16.014 14.992l-5.648.895C9.872 12.77 12 9.843 15.12 9.347c1.872-.295 3.598.265 4.938 1.604l-4.044 4.042z"/>
    <path fill="#f9ae1f" d="M16.035 14.92l-5.66.846c-.466-3.123 1.69-6.034 4.815-6.5 1.875-.28 3.598.295 4.927 1.646 0 0-.054.073-.162.18l-1.734 1.705c-.635.625-2.185 2.123-2.185 2.123z"/>
    <path fill="#828282" d="M16.028 15.04l-5.184-2.415c.534-1.146 1.307-1.973 2.412-2.587l2.772 5.002z"/>
    <path fill="#bed136" d="M16.044 15.065l-.798 5.665c-3.128-.44-5.307-3.33-4.866-6.46.088-.625.247-1.143.524-1.71l5.14 2.505z"/>
    <path fill="#656566" d="M18.58 15.078c0 1.42-1.148 2.572-2.564 2.572s-2.563-1.15-2.563-2.572 1.147-2.572 2.563-2.572c1.415 0 2.563 1.15 2.563 2.572z"/>
    <path fill="#eaebec" d="M10.535 13.996c-.068.35-.104.712-.104 1.082 0 3.095 2.502 5.604 5.586 5.604s5.585-2.51 5.585-5.604c0-.38-.037-.753-.11-1.113-1.082.11-2.802.165-5.49.173-2.64.008-4.36-.038-5.465-.142zM4.63 15.08c2.257-3.965 6.51-6.637 11.387-6.637s9.13 2.67 11.386 6.635c-2.257 3.964-6.51 6.636-11.387 6.636s-9.13-2.67-11.386-6.635z"/>
  </svg>
  <svg width="32" height="32" viewBox="0 0 32 32" x="544">
    <path fill="#fff" d="M0 0h32v32H0V0z"/>
    <path fill="#fefefe" d="M16.018 15.004l-5.696-.498c.275-3.144 3.048-5.47 6.194-5.194 1.888.165 3.427 1.127 4.403 2.75l-4.902 2.943z"/>
    <path fill="#4797d2" d="M16.016 15.06l3.975-4.115c2.273 2.194 2.335 5.815.14 8.09-1.317 1.363-3.034 1.955-4.91 1.69l.797-5.664z"/>
    <path fill="#fefefe" d="M16.014 14.992l-5.648.895C9.872 12.77 12 9.843 15.12 9.347c1.872-.295 3.598.265 4.938 1.604l-4.044 4.042z"/>
    <path fill="#f9ae1f" d="M16.035 14.92l-5.66.846c-.466-3.123 1.69-6.034 4.815-6.5 1.875-.28 3.598.295 4.927 1.646 0 0-.054.073-.162.18l-1.734 1.705c-.635.625-2.185 2.123-2.185 2.123z"/>
    <path fill="#828282" d="M16.028 15.04l-5.184-2.415c.534-1.146 1.307-1.973 2.412-2.587l2.772 5.002z"/>
    <path fill="#bed136" d="M16.044 15.065l-.798 5.665c-3.128-.44-5.307-3.33-4.866-6.46.088-.625.247-1.143.524-1.71l5.14 2.505z"/>
    <path fill="#eaebec" d="M4.63 15.08c2.257-3.965 6.51-6.637 11.387-6.637s9.13 2.67 11.386 6.635c-2.257 3.964-6.51 6.636-11.387 6.636s-9.13-2.67-11.386-6.635zm16.97-.002c0-3.095-2.5-5.604-5.584-5.604s-5.585 2.51-5.585 5.604 2.502 5.604 5.586 5.604c3.084 0 5.585-2.51 5.585-5.604z"/>
    <path fill="#656566" d="M18.58 15.078c0 1.42-1.148 2.572-2.564 2.572s-2.563-1.15-2.563-2.572 1.147-2.572 2.563-2.572c1.415 0 2.563 1.15 2.563 2.572z"/>
  </svg>
</svg>
